<?xml version="1.0" encoding="UTF-8"?>
<svg width="20px" height="20px" viewBox="0 0 20 20" version="1.1" xmlns="http://www.w3.org/2000/svg" xmlns:xlink="http://www.w3.org/1999/xlink">
    <!-- Generator: Sketch 64 (93537) - https://sketch.com -->
    <title>cleaning-tools</title>
    <desc>Created with Sketch.</desc>
    <g id="Page-1" stroke="none" stroke-width="1" fill="none" fill-rule="evenodd">
        <g id="Daily-Report-Short-View" transform="translate(-282.000000, -194.000000)" fill="#F8E71C" fill-rule="nonzero">
            <g id="Mammal-Strip" transform="translate(9.000000, 141.000000)">
                <g id="Group-12" transform="translate(241.000000, 53.000000)">
                    <g id="cleaning-tools" transform="translate(32.000000, 0.000000)">
                        <path d="M16.8667233,16.6324278 L16.9911927,15.6379457 L16.3596138,15.5589983 L16.2351443,16.5534805 L15.2801358,16.5534805 L15.2801358,17.1901528 L16.2351443,17.1901528 C16.5557088,17.1901528 16.8272496,16.9504457 16.8667233,16.6324278 Z" id="Path"></path>
                        <path d="M19.0966681,6.42434211 C19.0973048,6.4049236 19.1001698,6.38582343 19.1001698,6.36672326 C19.1001698,5.58870968 18.5389431,4.9393039 17.8000849,4.80178268 C17.6625637,4.06292445 17.0131579,3.50169779 16.2351443,3.50169779 C15.7137097,3.50169779 15.2397071,3.75191002 14.9439728,4.16893039 C14.6460102,4.10876486 14.3458192,4.13932513 14.0736418,4.24373939 C13.7865025,3.78915535 13.2835314,3.50169779 12.7334465,3.50169779 C12.0929542,3.50169779 11.5202674,3.89134126 11.2726019,4.46307301 C11.0780985,4.44460951 10.8896435,4.46593803 10.7040535,4.52069185 C10.3433786,4.07788625 9.8098472,3.82003396 9.23174873,3.82003396 C8.74214771,3.82003396 8.29679542,4.00657895 7.95840407,4.31027165 L7.95840407,1.27334465 C7.95840407,0.571095076 7.387309,0 6.68505942,0 C5.98280985,0 5.41171477,0.571095076 5.41171477,1.27334465 L5.41171477,12.0967742 L4.77504244,12.0967742 C4.24851443,12.0967742 3.82003396,12.5252547 3.82003396,13.0517827 L3.82003396,14.0067912 L1.59168081,14.0067912 C0.714028014,14.0067912 0,14.7208192 0,15.598472 L0,16.5534805 L0.636672326,16.5534805 L0.636672326,19.7368421 L12.7334465,19.7368421 L12.7334465,18.4634975 L16.384444,18.4634975 C17.1856961,18.4634975 17.8647071,17.8640705 17.964983,17.0602716 L18.7525467,8.91341256 L18.7818336,8.91341256 C19.3083616,8.91341256 19.7368421,8.48493209 19.7368421,7.95840407 L19.7368421,7.32173175 C19.7368421,6.90598472 19.4681664,6.55517827 19.0966681,6.42434211 Z M9.23174873,4.45670628 C9.67614601,4.45670628 10.0810696,4.68686333 10.3156834,5.07236842 L10.4665747,5.32003396 L10.727292,5.19301783 C10.9383489,5.09051358 11.1217105,5.05517827 11.4012097,5.13508065 L11.7294143,5.22835314 L11.8000849,4.89473684 C11.8924024,4.45638795 12.2852292,4.13837012 12.7334465,4.13837012 C13.1355051,4.13837012 13.4958616,4.39622241 13.6301995,4.78013582 L13.7667657,5.17041596 L14.1092954,4.93866723 C14.3575976,4.77090407 14.6660654,4.72124363 14.9796265,4.83998302 L15.2521222,4.94312394 L15.37882,4.68081494 C15.5402165,4.34624363 15.8687394,4.13837012 16.2351443,4.13837012 C16.7616723,4.13837012 17.1901528,4.56685059 17.1901528,5.09337861 L17.1901528,5.41171477 L17.508489,5.41171477 C18.035017,5.41171477 18.4634975,5.84019525 18.4634975,6.36672326 L8.27674024,6.36672326 C8.16468591,6.36672326 8.05836163,6.38964346 7.95840407,6.42529711 L7.95840407,5.73005093 C7.95840407,5.02780136 8.52949915,4.45670628 9.23174873,4.45670628 Z M8.30602716,8.91341256 L8.61385823,12.0986842 C8.60749151,12.0986842 8.60144312,12.0967742 8.5950764,12.0967742 L7.95840407,12.0967742 L7.95840407,8.85483871 C8.05836163,8.89049236 8.16468591,8.91341256 8.27674024,8.91341256 L8.30602716,8.91341256 Z M6.0483871,1.27334465 C6.0483871,0.922219864 6.33393463,0.636672326 6.68505942,0.636672326 C7.03618421,0.636672326 7.32173175,0.922219864 7.32173175,1.27334465 L7.32173175,7.32173175 L7.32173175,7.95840407 L7.32173175,12.0967742 L6.0483871,12.0967742 L6.0483871,1.27334465 Z M4.45670628,13.0517827 C4.45670628,12.8763795 4.59963922,12.7334465 4.77504244,12.7334465 L8.5950764,12.7334465 C8.77047963,12.7334465 8.91341256,12.8763795 8.91341256,13.0517827 L8.91341256,14.0067912 L4.45670628,14.0067912 L4.45670628,13.0517827 Z M0.636672326,15.598472 C0.636672326,15.071944 1.0651528,14.6434635 1.59168081,14.6434635 L11.778438,14.6434635 C12.304966,14.6434635 12.7334465,15.071944 12.7334465,15.598472 L12.7334465,15.9168081 L0.636672326,15.9168081 L0.636672326,15.598472 Z M8.27674024,17.1901528 L8.27674024,19.1001698 L7.64006791,19.1001698 L7.64006791,16.5534805 L9.55008489,16.5534805 L9.55008489,19.1001698 L8.91341256,19.1001698 L8.91341256,17.1901528 L8.27674024,17.1901528 Z M5.73005093,17.1901528 L5.73005093,19.1001698 L5.09337861,19.1001698 L5.09337861,16.5534805 L7.00339559,16.5534805 L7.00339559,19.1001698 L6.36672326,19.1001698 L6.36672326,17.1901528 L5.73005093,17.1901528 Z M3.18336163,17.1901528 L3.18336163,19.1001698 L2.5466893,19.1001698 L2.5466893,16.5534805 L4.45670628,16.5534805 L4.45670628,19.1001698 L3.82003396,19.1001698 L3.82003396,17.1901528 L3.18336163,17.1901528 Z M1.27334465,16.5534805 L1.91001698,16.5534805 L1.91001698,19.1001698 L1.27334465,19.1001698 L1.27334465,16.5534805 Z M11.4601019,19.1001698 L11.4601019,17.1901528 L10.8234295,17.1901528 L10.8234295,19.1001698 L10.1867572,19.1001698 L10.1867572,16.5534805 L12.0967742,16.5534805 L12.0967742,19.1001698 L11.4601019,19.1001698 Z M17.3321307,16.9902377 C17.2726019,17.4671053 16.8651316,17.8268251 16.384444,17.8268251 L12.7334465,17.8268251 L12.7334465,16.5534805 L13.3701188,16.5534805 L13.3701188,15.598472 C13.3701188,14.7208192 12.6560908,14.0067912 11.778438,14.0067912 L9.55008489,14.0067912 L9.55008489,13.0517827 C9.55008489,12.7952037 9.44726231,12.5631367 9.28204584,12.3912351 L8.94556452,8.91341256 L18.1130093,8.91341256 L17.3321307,16.9902377 Z M19.1001698,7.95840407 C19.1001698,8.1338073 18.9572368,8.27674024 18.7818336,8.27674024 L8.27674024,8.27674024 C8.10133701,8.27674024 7.95840407,8.1338073 7.95840407,7.95840407 L7.95840407,7.32173175 C7.95840407,7.14632852 8.10133701,7.00339559 8.27674024,7.00339559 L18.7818336,7.00339559 C18.9572368,7.00339559 19.1001698,7.14632852 19.1001698,7.32173175 L19.1001698,7.95840407 Z" id="Shape"></path>
                        <path d="M18.7818336,3.50169779 C19.3083616,3.50169779 19.7368421,3.07321732 19.7368421,2.5466893 C19.7368421,2.02016129 19.3083616,1.59168081 18.7818336,1.59168081 C18.2553056,1.59168081 17.8268251,2.02016129 17.8268251,2.5466893 C17.8268251,3.07321732 18.2553056,3.50169779 18.7818336,3.50169779 Z M18.7818336,2.22835314 C18.9572368,2.22835314 19.1001698,2.37128608 19.1001698,2.5466893 C19.1001698,2.72209253 18.9572368,2.86502547 18.7818336,2.86502547 C18.6064304,2.86502547 18.4634975,2.72209253 18.4634975,2.5466893 C18.4634975,2.37128608 18.6064304,2.22835314 18.7818336,2.22835314 Z" id="Shape"></path>
                        <path d="M11.778438,2.86502547 C12.304966,2.86502547 12.7334465,2.43654499 12.7334465,1.91001698 C12.7334465,1.38348896 12.304966,0.955008489 11.778438,0.955008489 C11.25191,0.955008489 10.8234295,1.38348896 10.8234295,1.91001698 C10.8234295,2.43654499 11.25191,2.86502547 11.778438,2.86502547 Z M11.778438,1.59168081 C11.9538413,1.59168081 12.0967742,1.73461375 12.0967742,1.91001698 C12.0967742,2.0854202 11.9538413,2.22835314 11.778438,2.22835314 C11.6030348,2.22835314 11.4601019,2.0854202 11.4601019,1.91001698 C11.4601019,1.73461375 11.6030348,1.59168081 11.778438,1.59168081 Z" id="Shape"></path>
                        <path d="M16.2351443,2.5466893 C16.9373939,2.5466893 17.508489,1.97559423 17.508489,1.27334465 C17.508489,0.571095076 16.9373939,0 16.2351443,0 C15.5328947,0 14.9617997,0.571095076 14.9617997,1.27334465 C14.9617997,1.97559423 15.5328947,2.5466893 16.2351443,2.5466893 Z M16.2351443,0.636672326 C16.5862691,0.636672326 16.8718166,0.922219864 16.8718166,1.27334465 C16.8718166,1.62446944 16.5862691,1.91001698 16.2351443,1.91001698 C15.8840195,1.91001698 15.598472,1.62446944 15.598472,1.27334465 C15.598472,0.922219864 15.8840195,0.636672326 16.2351443,0.636672326 Z" id="Shape"></path>
                        <polygon id="Path" points="14.0067912 16.5534805 14.6434635 16.5534805 14.6434635 17.1901528 14.0067912 17.1901528"></polygon>
                        <polygon id="Path" points="10.8234295 9.55008489 11.4601019 9.55008489 11.4601019 10.1867572 10.8234295 10.1867572"></polygon>
                        <polygon id="Path" points="9.55008489 9.55008489 10.1867572 9.55008489 10.1867572 10.1867572 9.55008489 10.1867572"></polygon>
                        <polygon id="Path" points="12.0967742 9.55008489 12.7334465 9.55008489 12.7334465 10.1867572 12.0967742 10.1867572"></polygon>
                        <path d="M1.59168081,11.1417657 C2.11820883,11.1417657 2.5466893,10.7132852 2.5466893,10.1867572 C2.5466893,9.6602292 2.11820883,9.23174873 1.59168081,9.23174873 C1.0651528,9.23174873 0.636672326,9.6602292 0.636672326,10.1867572 C0.636672326,10.7132852 1.0651528,11.1417657 1.59168081,11.1417657 Z M1.59168081,9.86842105 C1.76708404,9.86842105 1.91001698,10.011354 1.91001698,10.1867572 C1.91001698,10.3621604 1.76708404,10.5050934 1.59168081,10.5050934 C1.41627759,10.5050934 1.27334465,10.3621604 1.27334465,10.1867572 C1.27334465,10.011354 1.41627759,9.86842105 1.59168081,9.86842105 Z" id="Shape"></path>
                        <path d="M3.50169779,7.32173175 C4.20394737,7.32173175 4.77504244,6.75063667 4.77504244,6.0483871 C4.77504244,5.34613752 4.20394737,4.77504244 3.50169779,4.77504244 C2.79944822,4.77504244 2.22835314,5.34613752 2.22835314,6.0483871 C2.22835314,6.75063667 2.79944822,7.32173175 3.50169779,7.32173175 Z M3.50169779,5.41171477 C3.85282258,5.41171477 4.13837012,5.69726231 4.13837012,6.0483871 C4.13837012,6.39951188 3.85282258,6.68505942 3.50169779,6.68505942 C3.15057301,6.68505942 2.86502547,6.39951188 2.86502547,6.0483871 C2.86502547,5.69726231 3.15057301,5.41171477 3.50169779,5.41171477 Z" id="Shape"></path>
                        <path d="M1.59168081,3.82003396 C2.11820883,3.82003396 2.5466893,3.39155348 2.5466893,2.86502547 C2.5466893,2.33849745 2.11820883,1.91001698 1.59168081,1.91001698 C1.0651528,1.91001698 0.636672326,2.33849745 0.636672326,2.86502547 C0.636672326,3.39155348 1.0651528,3.82003396 1.59168081,3.82003396 Z M1.59168081,2.5466893 C1.76708404,2.5466893 1.91001698,2.68962224 1.91001698,2.86502547 C1.91001698,3.04042869 1.76708404,3.18336163 1.59168081,3.18336163 C1.41627759,3.18336163 1.27334465,3.04042869 1.27334465,2.86502547 C1.27334465,2.68962224 1.41627759,2.5466893 1.59168081,2.5466893 Z" id="Shape"></path>
                    </g>
                </g>
            </g>
        </g>
    </g>
</svg>