<?xml version="1.0" encoding="UTF-8"?>
<svg width="20px" height="20px" viewBox="0 0 20 20" version="1.1" xmlns="http://www.w3.org/2000/svg" xmlns:xlink="http://www.w3.org/1999/xlink">
    <!-- Generator: Sketch 64 (93537) - https://sketch.com -->
    <title>dish</title>
    <desc>Created with Sketch.</desc>
    <g id="Page-1" stroke="none" stroke-width="1" fill="none" fill-rule="evenodd">
        <g id="Daily-Report-Short-View" transform="translate(-250.000000, -194.000000)" fill="#F8E71C" fill-rule="nonzero">
            <g id="Mammal-Strip" transform="translate(9.000000, 141.000000)">
                <g id="Group-12" transform="translate(241.000000, 53.000000)">
                    <g id="dish">
                        <path d="M16.244,5.111 L15.923,4.0545 C15.51525,2.854375 14.2118125,2.2120625 13.0116875,2.6198125 C12.3365625,2.8491875 11.806375,3.379375 11.577,4.0545 L11.256,5.111 C10.985875,6.002 10.9291875,6.9440625 11.0905,7.861 C11.237625,8.633 11.72775,9.29625 12.4225,9.6635 L12.063,17.7 C12.014875,18.1485625 12.160375,18.596375 12.463,18.931 C13.1138125,19.642875 14.2185625,19.692375 14.9304375,19.0415625 C14.9689375,19.006375 15.0058125,18.9695 15.041,18.931 C15.336875,18.605875 15.482125,18.1711875 15.441,17.7335 L15.0795,9.6625 C15.7733125,9.2950625 16.262625,8.63225 16.4095,7.861 C16.5708125,6.9440625 16.514125,6.002 16.244,5.111 Z M15.4245,7.687 C15.31625,8.241625 14.921,8.6966875 14.387,8.8815 C14.1843125,8.9576875 14.05375,9.1556875 14.0635,9.372 L14.4435,17.8125 C14.461,17.9780625 14.406375,18.143125 14.2935,18.2655 C13.9924375,18.5635625 13.5075625,18.5635625 13.2065,18.2655 C13.088,18.13325 13.0341875,17.95525 13.0595,17.7795 L13.4365,9.372 C13.44625,9.1556875 13.3156875,8.9576875 13.113,8.8815 C12.579,8.6966875 12.18375,8.241625 12.0755,7.687 C11.94175,6.92575 11.988875,6.1436875 12.213,5.404 L12.534,4.347 C12.782375,3.6754375 13.528125,3.332375 14.19975,3.58075 C14.5548125,3.7120625 14.8346875,3.992 14.966,4.347 L15.287,5.404 C15.510875,6.14375 15.558,6.92575 15.4245,7.687 Z" id="Shape"></path>
                        <path d="M8.5,2.5 C8.223875,2.5 8,2.723875 8,3 L8,7.293 L6.6465,8.6465 C6.546375,8.74625 6.493125,8.8838125 6.5,9.025 L6.9375,17.775 C6.9479375,17.9636875 6.8794375,18.14825 6.7485,18.2845 C6.4748125,18.560625 6.0290625,18.562625 5.752875,18.288875 C5.751375,18.2874375 5.7499375,18.2859375 5.7485,18.2845 C5.6175,18.14825 5.5490625,17.9636875 5.5595,17.775 L6,9.025 C6.007,8.883875 5.9539375,8.746375 5.854,8.6465 L4.5,7.293 L4.5,3 C4.5,2.723875 4.276125,2.5 4,2.5 C3.723875,2.5 3.5,2.723875 3.5,3 L3.5,7.5 C3.5,7.632625 3.55275,7.75975 3.6465,7.8535 L4.9895,9.197 L4.563,17.7265 C4.517625,18.6581875 5.236125,19.4503125 6.1678125,19.4956875 C7.0995,19.5410625 7.891625,18.8225625 7.937,17.890875 C7.9396875,17.836125 7.9396875,17.7813125 7.937,17.7265625 L7.5105,9.1970625 L8.8535,7.8535625 C8.94725,7.7598125 9,7.6326875 9,7.5000625 L9,3.0000625 C9,2.723875 8.776125,2.5 8.5,2.5 Z" id="Path"></path>
                        <path d="M5.5,2.5 C5.223875,2.5 5,2.723875 5,3 L5,7 C5,7.276125 5.223875,7.5 5.5,7.5 C5.776125,7.5 6,7.276125 6,7 L6,3 C6,2.723875 5.776125,2.5 5.5,2.5 Z" id="Path"></path>
                        <path d="M7,2.5 C6.723875,2.5 6.5,2.723875 6.5,3 L6.5,7 C6.5,7.276125 6.723875,7.5 7,7.5 C7.276125,7.5 7.5,7.276125 7.5,7 L7.5,3 C7.5,2.723875 7.276125,2.5 7,2.5 Z" id="Path"></path>
                        <path d="M11.6230625,19.38575 C11.59625,19.1109375 11.3516875,18.909875 11.0768125,18.9366875 C11.070375,18.9373125 11.0639375,18.9380625 11.0575,18.9389375 L11.0595,18.9384375 C10.3555625,19.0201875 9.6444375,19.0201875 8.9405,18.9384375 C8.666125,18.90625 8.4176875,19.1025625 8.3855,19.3769375 C8.3533125,19.6513125 8.549625,19.89975 8.824,19.9319375 C9.6046875,20.023125 10.3933125,20.023125 11.174,19.9319375 C11.4488125,19.9051875 11.649875,19.660625 11.6230625,19.38575 Z" id="Path"></path>
                        <path d="M17.65,3.557 C17.4725625,3.3454375 17.1571875,3.31775 16.945625,3.49525 C16.9449375,3.4958125 16.94425,3.4964375 16.9435,3.497 C16.7324375,3.675 16.7055625,3.990375 16.8835,4.2015 C19.8981875,7.78025 19.6675625,13.0720625 16.353,16.375 C16.157375,16.5699375 16.1568125,16.886625 16.35175,17.08225 C16.5466875,17.277875 16.863375,17.2784375 17.059,17.0835 C20.7425625,13.4139375 20.9994375,7.5338125 17.65,3.557 Z" id="Path"></path>
                        <g id="Group" transform="translate(6.125000, 0.000000)">
                            <path d="M0.557,1.64028125 C0.556375,1.64028125 0.55575,1.64015625 0.555125,1.64015625 C0.554125,1.64015625 0.553125,1.64028125 0.552,1.64028125 L0.557,1.64028125 Z" id="Path"></path>
                            <path d="M6.2335,0.2795 C4.2794375,-0.1888125 2.2300625,-0.0629375 0.348,0.641 C0.0895,0.7381875 -0.0411875,1.0265625 0.056,1.285 C0.12925,1.4798125 0.3155,1.60875 0.5235625,1.6089375 C0.583375,1.608625 0.642625,1.5976875 0.6985,1.5765 C2.393375,0.9426875 4.238875,0.8295 5.9985,1.2515 C6.2669375,1.316375 6.537125,1.1514375 6.602,0.883 C6.666875,0.6145625 6.5019375,0.344375 6.2335,0.2795 Z" id="Path"></path>
                        </g>
                        <path d="M3.6245,16.35 C1.9389375,14.6673125 0.99425,12.38175 1,10 C0.9950625,8.097125 1.5978125,6.242375 2.7205,4.706 C2.8864375,4.48525 2.842,4.1718125 2.62125,4.005875 C2.4005,3.8399375 2.0870625,3.884375 1.921125,4.105125 C1.9181875,4.1090625 1.9153125,4.113 1.9125,4.117 C-0.9783125,8.09125 -0.5529375,13.5769375 2.916,17.058 C3.1115,17.253625 3.428625,17.25375 3.62425,17.05825 C3.819875,16.86275 3.82,16.545625 3.6245,16.35 Z" id="Path"></path>
                    </g>
                </g>
            </g>
        </g>
    </g>
</svg>