<?xml version="1.0" encoding="UTF-8"?>
<svg width="25px" height="25px" viewBox="0 0 25 25" version="1.1" xmlns="http://www.w3.org/2000/svg" xmlns:xlink="http://www.w3.org/1999/xlink">
    <!-- Generator: Sketch 64 (93537) - https://sketch.com -->
    <title>sun (1)</title>
    <desc>Created with Sketch.</desc>
    <g id="Page-1" stroke="none" stroke-width="1" fill="none" fill-rule="evenodd">
        <g id="Daily-Report-Status" transform="translate(-45.000000, -258.000000)" fill="#FFBB00" fill-rule="nonzero">
            <g id="Group-12" transform="translate(42.000000, 258.000000)">
                <g id="sun-(1)" transform="translate(3.000000, 0.000000)">
                    <path d="M12.1968,0 C11.8021192,0 11.4821438,0.319975425 11.4821438,0.71465625 L11.4821438,3.76771539 C11.4821438,4.16239622 11.8021192,4.48237164 12.1968,4.48237164 C12.5914808,4.48237164 12.9114563,4.16239622 12.9114563,3.76771539 L12.9114563,0.71465625 C12.9114563,0.319975425 12.5914808,0 12.1968,0 Z" id="Path"></path>
                    <path d="M12.1968,19.9112284 C11.8021192,19.9112284 11.4821438,20.2312038 11.4821438,20.6258846 L11.4821438,23.6789437 C11.4821438,24.0736246 11.8021192,24.3936 12.1968,24.3936 C12.5914808,24.3936 12.9114563,24.0736246 12.9114563,23.6789437 L12.9114563,20.6258846 C12.9114563,20.2312038 12.5914808,19.9112284 12.1968,19.9112284 Z" id="Path"></path>
                    <path d="M5.79910196,4.78843509 L4.58304289,3.57232838 C4.30399344,3.29327893 3.85147311,3.29327893 3.57237602,3.57232838 C3.29327893,3.85137782 3.29327893,4.30389816 3.57237602,4.58299524 L4.78843509,5.79910196 C5.06753218,6.07819905 5.52000488,6.07819905 5.79910196,5.79910196 C6.07819905,5.52005252 6.07819905,5.06753218 5.79910196,4.78843509 Z" id="Path"></path>
                    <path d="M20.821224,3.57237602 C20.5421745,3.29332657 20.0896542,3.29332657 19.8105571,3.57237602 L18.594498,4.78843509 C18.3154009,5.06748454 18.3154009,5.52000487 18.594498,5.79910196 C18.8735951,6.07819905 19.3260678,6.07815141 19.6051649,5.79910196 L20.821224,4.58304289 C21.1003211,4.30399344 21.1003211,3.85147311 20.821224,3.57237602 Z" id="Path"></path>
                    <path d="M5.79910196,18.594498 C5.52005252,18.3154486 5.06753218,18.3154486 4.78843509,18.594498 L3.57237602,19.8105571 C3.29327893,20.0896066 3.29327893,20.5421269 3.57237602,20.821224 C3.85147311,21.1003211 4.3039458,21.1003211 4.58304289,20.821224 L5.79910196,19.6051649 C6.07819905,19.3261155 6.07819905,18.8735951 5.79910196,18.594498 Z" id="Path"></path>
                    <path d="M17.3891588,16.3785396 C18.3129235,15.2337556 18.866925,13.7788584 18.866925,12.1968 C18.866925,10.6147416 18.3129235,9.15984444 17.3891588,8.01510806 L18.2582284,7.14608606 C18.5373255,6.86703662 18.5373255,6.41456393 18.2582284,6.13541919 C17.9791314,5.85627446 17.5266587,5.85632211 17.2475616,6.13541919 L16.3784919,7.00444119 C15.2337556,6.08067653 13.7788584,5.526675 12.1968,5.526675 C10.6147416,5.526675 9.15984444,6.08067653 8.01510806,7.00444119 L7.14603842,6.13541919 C6.86694133,5.85627446 6.41446864,5.85636975 6.13537155,6.13541919 C5.85632211,6.41451628 5.85632211,6.86698897 6.13537155,7.14608606 L7.00444119,8.01510806 C6.08067653,9.15984444 5.526675,10.6147416 5.526675,12.1968 C5.526675,13.7788584 6.08067653,15.2337556 7.00444119,16.3784919 L6.13537155,17.2475139 C5.85627446,17.5265634 5.85627446,17.9790361 6.13537155,18.2581808 C6.41437335,18.5372303 6.86694133,18.5373255 7.14603842,18.2581808 L8.01510806,17.3891588 C9.15984444,18.3129235 10.6147416,18.866925 12.1968,18.866925 C13.7788584,18.866925 15.2337556,18.3129235 16.3784919,17.3891588 L17.2475616,18.2581808 C17.526611,18.5372779 17.9790837,18.5373255 18.2582284,18.2581808 C18.5373255,17.9790837 18.5373255,17.526611 18.2582284,17.2475616 L17.3891588,16.3785396 Z" id="Path"></path>
                    <path d="M20.821224,19.8105571 L19.6051649,18.594498 C19.3261155,18.3154486 18.8735951,18.3154486 18.594498,18.594498 C18.3154009,18.8735475 18.3154009,19.3260678 18.594498,19.6051649 L19.8105571,20.821224 C20.0896542,21.1003211 20.5421269,21.1003211 20.821224,20.821224 C21.1003211,20.5421745 21.1003211,20.0896542 20.821224,19.8105571 Z" id="Path"></path>
                    <path d="M3.76771539,11.4821438 L0.71465625,11.4821438 C0.319975425,11.4821438 0,11.8021192 0,12.1968 C0,12.5914808 0.319975425,12.9114563 0.71465625,12.9114563 L3.76771539,12.9114563 C4.16239622,12.9114563 4.48237164,12.5914808 4.48237164,12.1968 C4.48237164,11.8021192 4.16239622,11.4821438 3.76771539,11.4821438 Z" id="Path"></path>
                    <path d="M23.6789437,11.4821438 L20.6258846,11.4821438 C20.2312038,11.4821438 19.9112284,11.8021192 19.9112284,12.1968 C19.9112284,12.5914808 20.2312038,12.9114563 20.6258846,12.9114563 L23.6789437,12.9114563 C24.0736246,12.9114563 24.3936,12.5914808 24.3936,12.1968 C24.3936,11.8021192 24.0736246,11.4821438 23.6789437,11.4821438 Z" id="Path"></path>
                </g>
            </g>
        </g>
    </g>
</svg>